<svg xmlns="http://www.w3.org/2000/svg" version="1.1" xmlns:xlink="http://www.w3.org/1999/xlink" viewBox="0 0 200 200"><rect width="200" height="200" fill="url('#gradient')"></rect><defs><linearGradient id="gradient" gradientTransform="rotate(45 0.5 0.5)"><stop offset="0%" stop-color="#445272"></stop><stop offset="100%" stop-color="#000000"></stop></linearGradient></defs><g><g fill="#ffffff" transform="matrix(5.405278592375367,0,0,5.405278592375367,4.191824319215812,138.430906379957)" stroke="#000000" stroke-width="0.2"><path d="M10.03-8.30L10.03-5.66L4.50-5.66L4.50 0L1.07 0L1.07-14.22L10.59-14.22L10.59-11.57L4.50-11.57L4.50-8.30L10.03-8.30ZM20.83-8.57L20.83-6.03L15.44-6.03L15.44-2.64L21.81-2.64L21.81 0L12.01 0L12.01-14.22L21.83-14.22L21.83-11.57L15.44-11.57L15.44-8.57L20.83-8.57ZM27.88 0L23.20 0L23.20-14.22L27.78-14.22Q29.67-14.22 31.17-13.36Q32.68-12.51 33.52-10.95Q34.37-9.39 34.38-7.46L34.38-7.46L34.38-6.81Q34.38-4.85 33.55-3.31Q32.72-1.76 31.23-0.88Q29.73-0.01 27.88 0L27.88 0ZM27.78-11.57L26.63-11.57L26.63-2.64L27.82-2.64Q29.30-2.64 30.09-3.69Q30.88-4.74 30.88-6.81L30.88-6.81L30.88-7.42Q30.88-9.48 30.09-10.53Q29.30-11.57 27.78-11.57L27.78-11.57Z"></path></g></g></svg>